<?xml version="1.0" encoding="UTF-8" standalone="no"?>
<svg
   xmlns:dc="http://purl.org/dc/elements/1.1/"
   xmlns:cc="http://creativecommons.org/ns#"
   xmlns:rdf="http://www.w3.org/1999/02/22-rdf-syntax-ns#"
   xmlns:svg="http://www.w3.org/2000/svg"
   xmlns="http://www.w3.org/2000/svg"
   xmlns:sodipodi="http://sodipodi.sourceforge.net/DTD/sodipodi-0.dtd"
   xmlns:inkscape="http://www.inkscape.org/namespaces/inkscape"
   width="271.57413"
   height="450.02368"
   viewBox="0 0 71.853986 119.06877"
   version="1.1"
   id="svg8"
   inkscape:version="1.0.1 (3bc2e813f5, 2020-09-07)"
   sodipodi:docname="lan.svg">
  <defs
     id="defs2">
	
	
	
	
	
	
	
	
	
	
	
	
	
	
	
	


		
	
		
	
		
	
		
	
		
	
		
	
		
	
		
	
		
	
		
	
		
	
		
	
		
	
		
	
		
	
		
	</defs>
  <sodipodi:namedview
     id="base"
     pagecolor="#ffffff"
     bordercolor="#666666"
     borderopacity="1.0"
     inkscape:pageopacity="0.0"
     inkscape:pageshadow="2"
     inkscape:zoom="0.5"
     inkscape:cx="24.606573"
     inkscape:cy="706.71714"
     inkscape:document-units="mm"
     inkscape:current-layer="layer1"
     inkscape:document-rotation="0"
     showgrid="false"
     showborder="false"
     inkscape:window-width="1920"
     inkscape:window-height="1017"
     inkscape:window-x="-8"
     inkscape:window-y="-8"
     inkscape:window-maximized="1"
     inkscape:object-nodes="false"
     units="px"
     fit-margin-top="0"
     fit-margin-left="0"
     fit-margin-right="0"
     fit-margin-bottom="0" />
  <metadata
     id="metadata5">
    <rdf:RDF>
      <cc:Work
         rdf:about="">
        <dc:format>image/svg+xml</dc:format>
        <dc:type
           rdf:resource="http://purl.org/dc/dcmitype/StillImage" />
        <dc:title></dc:title>
      </cc:Work>
    </rdf:RDF>
  </metadata>
  <g
     inkscape:label="Layer 1"
     inkscape:groupmode="layer"
     id="layer1"
     transform="translate(-316.01902,59.68977)">
    <g
       id="g3482">
      <g
         id="g3463">
        <g
           id="g3445">
          <g
             id="g3428">
            <path
               class="st3"
               d="m 361.10391,0.6318136 c -0.19431,5.5710681 11.415,33.4594774 11.415,33.4594774 0.88967,3.417194 4.30498,3.246401 6.29846,-3.038886 l 6.7088,-22.4485495 c 3.62656,-12.2120479 3.81336,-14.9074944 -4.97023,-23.7372285 l -12.01774,-9.197656 c -4.12573,-3.066202 -7.54573,-1.098156 -7.38061,4.473894 z"
               id="path1186"
               style="stroke-width:2.54174" />
            <path
               class="st3"
               d="M 343.13116,0.58471119 C 343.11608,6.3360045 331.541,33.983919 331.541,33.983919 c -0.90761,3.412492 -4.32196,3.22381 -6.28249,-3.071831 L 318.30803,8.4277364 c -3.56255,-12.230888 -3.7352,-14.9272875 5.09452,-23.7108594 l 12.06577,-9.134571 c 4.14174,-3.044536 7.55138,-1.058572 7.35704,4.512531 z"
               id="path1190"
               style="stroke-width:2.54174" />
            <path
               class="st4"
               d="m 341.10376,19.810393 c 0.048,-18.3322204 10.48449,-22.9778358 10.48449,-22.9778358 0,0 10.41101,5.0596938 10.36391,23.0324778 -0.0471,17.972746 -8.19181,39.69863 -10.5278,39.512776 -1.97747,0.174543 -10.18844,-21.414436 -10.3206,-39.567418 z"
               id="path1198"
               style="stroke-width:2.54174" />
            <path
               class="st5"
               d="M 341.32351,4.5340194 C 341.37155,-13.798208 351.808,-18.44382 351.808,-18.44382 c 0,0 10.41101,5.059697 10.36394,23.0324459 -0.0471,17.9727811 -8.19182,39.6986271 -10.52783,39.5128111 -2.33692,0.17359 -10.36863,-21.235197 -10.3206,-39.5674176 z"
               id="path1202"
               style="stroke-width:2.54174" />
            <g
               id="g1043"
               transform="matrix(0.66572215,0,0,0.66572215,330.1851,-82.835172)">
              <g
                 id="g1033"
                 transform="translate(-176.85766)">
                <g
                   id="g1024">
                  <polygon
                     id="polygon2989"
                     points="437.367,100.62 404.321,470.819 255.778,512 107.644,470.877 74.633,100.62 "
                     style="fill:#264de4"
                     transform="matrix(0.28222221,0,0,0.28222221,137.90588,6.3701619)" />
                  <polygon
                     id="polygon2991"
                     points="404.27,130.894 256,130.894 256,480.523 376.03,447.246 "
                     style="fill:#2965f1"
                     transform="matrix(0.28222221,0,0,0.28222221,137.90588,6.3701619)" />
                  <polygon
                     id="polygon2993"
                     points="154.38,313.627 256,313.627 256,268.217 150.31,268.217 "
                     style="fill:#ebebeb"
                     transform="matrix(0.28222221,0,0,0.28222221,137.90588,6.3701619)" />
                  <polygon
                     id="polygon2995"
                     points="256,176.305 255.843,176.305 142.132,176.305 146.26,221.716 256,221.716 "
                     style="fill:#ebebeb"
                     transform="matrix(0.28222221,0,0,0.28222221,137.90588,6.3701619)" />
                  <polygon
                     id="polygon2997"
                     points="256,433.399 256,386.153 255.801,386.206 205.227,372.55 201.994,336.333 177.419,336.333 156.409,336.333 162.771,407.634 255.791,433.457 "
                     style="fill:#ebebeb"
                     transform="matrix(0.28222221,0,0,0.28222221,137.90588,6.3701619)" />
                  <polygon
                     id="polygon3005"
                     points="311.761,313.627 306.49,372.521 255.843,386.191 255.843,433.435 348.937,407.634 349.62,399.962 360.291,280.411 361.399,268.217 369.597,176.305 255.843,176.305 255.843,221.716 319.831,221.716 315.699,268.217 255.843,268.217 255.843,313.627 "
                     style="fill:#ffffff"
                     transform="matrix(0.28222221,0,0,0.28222221,137.90588,6.3701619)" />
                </g>
              </g>
            </g>
            <path
               class="st3"
               d="m 354.18762,42.679645 c -0.008,2.875647 0.34628,5.0333 -2.52936,5.025771 v 0 c -2.87565,-0.0075 -2.51066,-2.163208 -2.50302,-5.038954 L 344.22928,2.0348224 c 0.008,-2.87565337 4.8795,-10.2317733 7.57493,-10.0449696 v 0 c 2.87565,0.00753 7.7091,7.38897624 7.52221,10.0845144 z"
               id="path1218"
               style="stroke-width:2.54174" />
          </g>
        </g>
      </g>
    </g>
  </g>
  <style
     type="text/css"
     id="style1172">
	.st0{fill:#4F5D73;}
	.st1{opacity:0.2;}
	.st2{fill:#231F20;}
	.st3{fill:#C75C5C;}
	.st4{fill:#E0995E;}
	.st5{fill:#F5CF87;}
	.st6{fill:#E0E0D1;}
</style>
</svg>
