<?xml version="1.0" encoding="UTF-8" standalone="no"?>
<svg
   xmlns:dc="http://purl.org/dc/elements/1.1/"
   xmlns:cc="http://creativecommons.org/ns#"
   xmlns:rdf="http://www.w3.org/1999/02/22-rdf-syntax-ns#"
   xmlns:svg="http://www.w3.org/2000/svg"
   xmlns="http://www.w3.org/2000/svg"
   xmlns:sodipodi="http://sodipodi.sourceforge.net/DTD/sodipodi-0.dtd"
   xmlns:inkscape="http://www.inkscape.org/namespaces/inkscape"
   width="71.853989mm"
   height="118.67333mm"
   viewBox="0 0 71.853989 118.67333"
   version="1.1"
   id="svg2172"
   inkscape:version="1.0.1 (3bc2e813f5, 2020-09-07)"
   sodipodi:docname="js.svg">
  <defs
     id="defs2166" />
  <sodipodi:namedview
     id="base"
     pagecolor="#ffffff"
     bordercolor="#666666"
     borderopacity="1.0"
     inkscape:pageopacity="0.0"
     inkscape:pageshadow="2"
     inkscape:zoom="0.49497475"
     inkscape:cx="566.01702"
     inkscape:cy="450.04204"
     inkscape:document-units="mm"
     inkscape:current-layer="layer1"
     inkscape:document-rotation="0"
     showgrid="false"
     showborder="false"
     inkscape:window-width="1920"
     inkscape:window-height="1017"
     inkscape:window-x="-8"
     inkscape:window-y="-8"
     inkscape:window-maximized="1" />
  <metadata
     id="metadata2169">
    <rdf:RDF>
      <cc:Work
         rdf:about="">
        <dc:format>image/svg+xml</dc:format>
        <dc:type
           rdf:resource="http://purl.org/dc/dcmitype/StillImage" />
        <dc:title />
      </cc:Work>
    </rdf:RDF>
  </metadata>
  <g
     inkscape:label="Layer 1"
     inkscape:groupmode="layer"
     id="layer1"
     transform="translate(110.80408,12.467618)">
    <g
       id="g4772">
      <g
         id="g4755">
        <g
           id="g4739">
          <g
             id="g4724">
            <path
               class="st3"
               d="m -65.719191,47.458529 c -0.1943,5.571066 11.415001,33.459478 11.415001,33.459478 0.88968,3.417194 4.30499,3.2464 6.298469,-3.038888 l 6.708802,-22.448549 c 3.626548,-12.212048 3.813349,-14.907496 -4.970232,-23.737229 L -58.2849,22.495686 c -4.125722,-3.066203 -7.54572,-1.098155 -7.38061,4.473893 z"
               id="path1818"
               style="fill:#c75c5c;stroke-width:2.54174" />
            <path
               class="st3"
               d="m -83.69194,47.411425 c -0.01508,5.751295 -11.590161,33.399209 -11.590161,33.399209 -0.9076,3.412492 -4.32195,3.22381 -6.282479,-3.071831 l -6.95049,-22.484353 c -3.56255,-12.230888 -3.7352,-14.927286 5.09452,-23.710858 l 12.065779,-9.134573 c 4.14174,-3.044534 7.55137,-1.058571 7.357031,4.512533 z"
               id="path1820"
               style="fill:#c75c5c;stroke-width:2.54174" />
            <path
               class="st4"
               d="m -85.719331,66.637108 c 0.048,-18.33222 10.48448,-22.977837 10.48448,-22.977837 0,0 10.41101,5.059696 10.363911,23.032479 -0.0471,17.972746 -8.191812,39.69863 -10.5278,39.51278 -1.977472,0.17454 -10.188441,-21.414439 -10.320591,-39.567422 z"
               id="path1822"
               style="fill:#e0995e;stroke-width:2.54174" />
            <path
               class="st5"
               d="m -85.499591,51.360733 c 0.048,-18.332228 10.484489,-22.977837 10.484489,-22.977837 0,0 10.411011,5.059696 10.363941,23.032445 -0.0471,17.97278 -8.191809,39.698629 -10.527829,39.512809 -2.336922,0.17359 -10.368631,-21.235194 -10.320601,-39.567417 z"
               id="path1824"
               style="fill:#f5cf87;stroke-width:2.54174" />
            <g
               id="g2068"
               transform="translate(-534.70677,46.826717)">
              <g
                 id="g2060">
                <g
                   id="g2053">
                  <path
                     style="fill:#ffffff;stroke:none;stroke-width:0.215959"
                     d="m 427.70371,-57.50519 0.0101,0.809841 c 0.006,0.445419 1.29601,15.192809 2.86768,32.771857 l 2.85755,31.9620149 12.84333,3.5959041 c 7.06382,1.977739 12.98909,3.605858 13.16726,3.618364 0.17818,0.01248 6.18171,-1.599273 13.34126,-3.581671 11.47882,-3.1783512 13.02845,-3.6570592 13.11064,-4.0504927 0.11452,-0.5481341 5.73575,-63.9614523 5.72997,-64.6399093 l -0.005,-0.485908 h -31.96201 z"
                     id="path118"
                     inkscape:connector-curvature="0" />
                  <path
                     inkscape:connector-curvature="0"
                     id="path88"
                     d="m 446.04842,12.684632 -13.28487,-3.7133892 -0.17361,-0.982614 c -0.15432,-0.8734436 -5.91529,-65.2178078 -5.91529,-66.0679718 0,-0.307697 3.36367,-0.342631 32.99076,-0.342631 31.27314,0 32.99064,0.02014 32.98822,0.387474 -0.0104,1.58644 -5.97348,66.7828142 -6.12002,66.9125771 -0.18518,0.1639813 -25.89828,7.3275249 -26.75749,7.4545009 -0.24356,0.03596 -6.42102,-1.605576 -13.7277,-3.647946 z m 21.99383,-13.12097351 c 4.4652,-1.23150759 8.18298,-2.30259879 8.26173,-2.38020549 0.0788,-0.077601 0.60125,-5.3720065 1.16113,-11.765352 0.55986,-6.393345 1.07445,-12.047717 1.1435,-12.565275 l 0.12559,-0.941008 h -9.64511 -9.64509 v 4.096163 4.09617 h 5.20745 5.20747 l -0.10359,0.498182 c -0.057,0.274005 -0.27844,2.628641 -0.49215,5.232528 -0.22644,2.759081 -0.49491,4.8406914 -0.64346,4.9892452 -0.1402,0.1402011 -2.26209,0.7899062 -4.71531,1.4437855 l -4.46041,1.1888788 v 4.173004 c 0,2.84824926 0.0761,4.173004 0.23986,4.173004 0.13191,0 3.89319,-1.00760624 8.35839,-2.23912001 z m 10.565,-32.79973249 c -0.14636,-1.084936 -1.4501,-15.63676 -1.4501,-16.185448 0,-0.333273 -0.76647,-0.365288 -8.74587,-0.365288 h -8.74587 v 4.283329 4.283329 l 3.93011,0.15148 c 2.16156,0.08331 4.4364,0.210105 5.05519,0.281762 l 1.12508,0.13029 0.27313,3.350474 c 0.15022,1.842764 0.32922,3.724115 0.39777,4.18078 l 0.12464,0.830307 h 4.08143 4.08144 z"
                     style="fill:#eaebec;stroke:none;stroke-width:0.221414"
                     sodipodi:nodetypes="sccsssccsscsccccccccsscscssscsscccsccsscccc" />
                  <path
                     inkscape:connector-curvature="0"
                     id="path80"
                     d="M 445.59021,13.400736 432.08642,9.6199191 429.08189,-23.98572 c -1.65248,-18.483095 -3.00932,-33.9888 -3.01518,-34.457119 l -0.0107,-0.851496 h 33.60562 33.60563 l 0.005,0.510897 c 0.006,0.713356 -5.90438,67.3878849 -6.02478,67.9642018 -0.0864,0.4136668 -1.71569,0.9170302 -13.78483,4.2588362 -7.52776,2.084354 -13.8401,3.778979 -14.02743,3.765842 -0.18733,-0.01313 -6.41731,-1.725256 -13.8444,-3.804706 z M 468.26254,0.33167738 c 4.66804,-1.2978024 8.55358,-2.46683598 8.63455,-2.59783788 0.081,-0.1310083 0.63862,-5.8378453 1.23924,-12.6818645 0.60061,-6.844017 1.1412,-12.622485 1.20132,-12.84103 0.10326,-0.375434 -0.69102,-0.397363 -14.3926,-0.397363 h -14.50188 l 0.61744,-6.528126 c 0.3396,-3.590461 0.62562,-6.537414 0.63562,-6.548775 0.01,-0.01139 2.13839,-0.07925 4.72977,-0.150871 4.24912,-0.117434 13.01164,0.221537 13.30478,0.514687 0.10952,0.109517 0.83002,7.178154 0.83002,8.143081 0,0.475785 0.0642,0.482833 4.39987,0.482833 h 4.39988 l -0.10368,-0.965029 c -0.057,-0.530766 -0.42974,-4.643484 -0.82824,-9.139372 l -0.72456,-8.174343 -16.96847,-0.05819 c -13.49937,-0.04634 -16.96886,1.15e-4 -16.97034,0.227066 -0.001,0.156902 -0.1,1.153805 -0.21987,2.215331 -0.29015,2.568713 -2.50305,27.387883 -2.50305,28.073343 v 0.536855 h 14.43859 14.43859 l -0.12872,0.851496 c -0.0708,0.468319 -0.29523,2.843989 -0.49876,5.279261 -0.20353,2.435272 -0.43558,4.4906782 -0.51567,4.5675742 -0.21154,0.203078 -8.70557,2.472237 -9.23523,2.467171 -0.24592,-0.0026 -2.43962,-0.549689 -4.8749,-1.216303 l -4.42776,-1.212023 -0.16237,-1.9058482 c -0.0893,-1.048215 -0.22516,-2.544461 -0.30191,-3.325001 l -0.13953,-1.419156 h -4.29617 -4.29616 l 0.01,0.851496 c 0.0178,1.592394 1.05037,12.3185251 1.20032,12.468476 0.17342,0.1734248 16.67434,4.8118106 17.18244,4.8299615 0.18733,0.00669 4.1599,-1.0496692 8.82794,-2.34747842 z"
                     style="fill:#f0be25;stroke:none;stroke-width:0.227065"
                     sodipodi:nodetypes="ccsccccccscccccscscsccsssccscscssccccsccscsscccccccc" />
                  <path
                     inkscape:connector-curvature="0"
                     id="path78"
                     d="M 445.59021,13.400736 432.08642,9.6199164 429.08189,-23.98572 c -1.65248,-18.483095 -3.00932,-33.9888 -3.01518,-34.457119 l -0.0107,-0.851496 h 33.60562 33.60563 l 0.005,0.510897 c 0.006,0.713356 -5.90438,67.3878822 -6.02478,67.9641991 -0.0864,0.4136668 -1.71569,0.9170329 -13.78483,4.2588389 -7.52776,2.084354 -13.8401,3.778979 -14.02743,3.765842 -0.18733,-0.01313 -6.41731,-1.725256 -13.8444,-3.804706 z M 470.77305,8.3427237 C 476.71327,6.703626 481.68503,5.24757 481.82141,5.107042 c 0.21224,-0.218693 5.34263,-56.446248 5.32199,-58.327383 l -0.007,-0.62443 h -13.73743 -13.73744 v 1.589453 1.589459 h -7.94731 c -6.20545,0 -7.94769,0.06218 -7.94914,0.283829 -0.001,0.156105 -0.1,1.152358 -0.21987,2.213883 -0.29015,2.568713 -2.50305,27.387883 -2.50305,28.073343 v 0.536855 h 9.30967 9.30966 v 6.58489 c 0,5.118812 -0.0632,6.583931 -0.28383,6.58061 -0.1561,-0.0026 -2.27632,-0.549689 -4.7116,-1.216304 l -4.42776,-1.212023 -0.16237,-1.905845 c -0.0893,-1.048214 -0.22516,-2.54446 -0.30191,-3.325001 l -0.13953,-1.419156 h -4.29617 -4.29616 l 0.01,0.851497 c 0.0272,2.435522 1.0808,12.37719 1.3279,12.529902 0.15019,0.09282 4.10006,1.22776695 8.77749,2.52210695 l 8.50442,2.35333505 v 4.268416 c 0,2.347633 0.07,4.268423 0.15548,4.268423 0.0855,0 5.01567,-1.3410811 10.9559,-2.9801783 z M 451.03669,-34.65352 c 0.32643,-3.556907 0.638,-6.507362 0.69238,-6.556563 0.0544,-0.04917 1.86145,-0.138217 4.01573,-0.197819 l 3.91687,-0.108371 v 6.664928 6.664927 h -4.60925 -4.60925 z"
                     style="fill:#e4a126;stroke:none;stroke-width:0.227065"
                     sodipodi:nodetypes="ccsccccccscccscccccccscsscccscscsscccccscsssscscccccs" />
                </g>
              </g>
            </g>
            <path
               class="st3"
               d="m -72.635481,89.50636 c -0.008,2.87565 0.346291,5.0333 -2.529359,5.02577 v 0 c -2.87565,-0.007 -2.51066,-2.16321 -2.503022,-5.03895 l -4.925959,-40.631643 c 0.008,-2.875653 4.879501,-10.231773 7.574931,-10.04497 v 0 c 2.87565,0.0075 7.709101,7.388977 7.52221,10.084515 z"
               id="path1828"
               style="fill:#c75c5c;stroke-width:2.54174" />
          </g>
        </g>
      </g>
    </g>
  </g>
</svg>
